<?xml version="1.0" standalone="no"?>
<!DOCTYPE svg PUBLIC "-//W3C//DTD SVG 20010904//EN"
 "http://www.w3.org/TR/2001/REC-SVG-20010904/DTD/svg10.dtd">
<svg version="1.0" xmlns="http://www.w3.org/2000/svg"
 width="160.000000pt" height="160.000000pt" viewBox="0 0 160.000000 160.000000"
 preserveAspectRatio="xMidYMid meet">
<metadata>
Created by potrace 1.11, written by Peter Selinger 2001-2013
</metadata>
<g transform="translate(0.000000,160.000000) scale(0.100000,-0.100000)"
fill="#000000" stroke="none">
<path d="M92 1508 c-17 -17 -17 -1399 0 -1416 17 -17 1399 -17 1416 0 9 9 12
173 12 678 l0 666 -43 42 -42 42 -115 -9 c-66 -5 -119 -5 -125 0 -11 11 -535
12 -552 1 -6 -4 113 -7 265 -7 l277 0 0 -225 0 -225 -345 0 -345 0 0 225 0
225 37 -1 c21 -1 35 2 33 7 -7 11 -265 -1 -289 -14 -15 -7 -22 -6 -31 7 -15
20 -134 23 -153 4z m1095 -480 c-7 -4 -217 -8 -467 -8 -250 0 -460 4 -467 8
-6 4 204 7 467 7 263 0 473 -3 467 -7z m87 -164 c3 -9 6 -182 6 -385 l0 -369
-477 2 -478 3 -3 360 c-1 198 0 370 3 383 l5 22 469 0 c418 0 470 -2 475 -16z
m-1074 -654 l0 -40 -40 0 c-39 0 -40 1 -40 33 0 19 3 37 7 40 3 4 21 7 40 7
32 0 33 -1 33 -40z m1280 0 l0 -40 -40 2 c-39 1 -40 2 -40 40 0 38 0 38 40 38
40 0 40 0 40 -40z"/>
<path d="M588 1493 c6 -2 18 -2 25 0 6 3 1 5 -13 5 -14 0 -19 -2 -12 -5z"/>
<path d="M890 1285 l0 -186 93 3 92 3 3 183 2 182 -95 0 -95 0 0 -185z"/>
</g>
</svg>
